<svg preserveAspectRatio="none" overflow="visible" style="display: block;" width="172" height="94" viewBox="0 0 172 94" fill="none" xmlns="http://www.w3.org/2000/svg">
<g id="img/404">
<g id="Vector">
<path d="M16 63.6198V60.673L43.325 16.8251H45.5652V22.5124H43.6492L20.451 59.8774V60.2015H55.322V63.6198H16ZM43.944 77.1749V16.8251H47.5402V77.1749H43.944Z" fill="#242EF7"/>
<path d="M85.9705 78C81.942 78 78.4834 76.7624 75.5947 74.2871C72.706 71.8118 70.4854 68.2658 68.9329 63.6492C67.4001 59.013 66.6337 53.4632 66.6337 47C66.6337 40.5564 67.41 35.0165 68.9624 30.3802C70.5149 25.744 72.7256 22.1882 75.5947 19.7129C78.4834 17.2376 81.942 16 85.9705 16C89.999 16 93.4478 17.2376 96.3169 19.7129C99.2056 22.1882 101.426 25.744 102.979 30.3802C104.531 35.0165 105.307 40.5564 105.307 47C105.307 53.4632 104.531 59.013 102.979 63.6492C101.446 68.2658 99.2351 71.8118 96.3464 74.2871C93.4576 76.7624 89.999 78 85.9705 78ZM85.9705 74.5818C90.8637 74.5818 94.7055 72.1556 97.4959 67.3032C100.286 62.4312 101.682 55.6635 101.682 47C101.682 41.2243 101.043 36.2738 99.7657 32.1483C98.508 28.0228 96.7099 24.8698 94.3714 22.6892C92.0329 20.4889 89.2326 19.3888 85.9705 19.3888C81.0774 19.3888 77.2356 21.8248 74.4451 26.6968C71.6546 31.5688 70.2594 38.3365 70.2594 47C70.2594 52.7757 70.8882 57.7262 72.1459 61.8517C73.4036 65.9575 75.2017 69.1106 77.5402 71.3108C79.8983 73.4914 82.7084 74.5818 85.9705 74.5818Z" fill="#242EF7"/>
<path d="M116.678 63.6198V60.673L144.003 16.8251H146.243V22.5124H144.327L121.129 59.8774V60.2015H156V63.6198H116.678ZM144.622 77.1749V16.8251H148.218V77.1749H144.622Z" fill="#242EF7"/>
</g>
</g>
</svg>
