<svg width="24" height="24" viewBox="0 0 24 24" fill="none" xmlns="http://www.w3.org/2000/svg">
<g clip-path="url(#clip0_9025_5507)">
<path d="M11.9985 3.30469C17.2235 3.30469 21.1655 6.72655 21.1655 10.5869C21.1655 12.1267 20.5789 13.5503 19.2397 15.0186L19.2329 15.0254L19.2261 15.0332C18.2471 16.1605 16.6193 17.4527 15.064 18.5371C13.8104 19.4112 12.676 20.0987 12.0454 20.4346C12.0576 20.3612 12.0698 20.2935 12.0786 20.2402C12.0843 20.2063 12.0881 20.1778 12.0913 20.1582L12.0962 20.1289L12.0972 20.1279V20.127L12.1011 20.0996C12.1199 19.957 12.1418 19.7537 12.1421 19.5391C12.1424 19.3398 12.1258 19.0505 12.0161 18.7764H12.0151C11.841 18.3419 11.4658 18.1177 11.2437 18.0107C10.9936 17.8904 10.729 17.8198 10.5366 17.7783L10.5034 17.7715L10.4702 17.7676L10.0503 17.7041C5.75438 16.9745 2.83162 13.9467 2.83154 10.5869C2.83154 6.72655 6.77355 3.30469 11.9985 3.30469Z" fill="black" stroke="black" stroke-width="1.6663"/>
<path d="M18.6707 13.1706H15.8588C15.8091 13.1706 15.7614 13.1509 15.7263 13.1157C15.6911 13.0806 15.6714 13.0329 15.6714 12.9832V8.62008C15.6714 8.57036 15.6911 8.52268 15.7263 8.48752C15.7614 8.45237 15.8091 8.43262 15.8588 8.43262H18.6707C18.7204 8.43262 18.7681 8.45237 18.8033 8.48752C18.8384 8.52268 18.8582 8.57036 18.8582 8.62008V9.32961C18.8582 9.37932 18.8384 9.42701 18.8033 9.46216C18.7681 9.49732 18.7204 9.51707 18.6707 9.51707H16.7615V10.2528H18.6707C18.7204 10.2528 18.7681 10.2726 18.8033 10.3077C18.8384 10.3429 18.8582 10.3906 18.8582 10.4403V11.1564C18.8582 11.2061 18.8384 11.2538 18.8033 11.2889C18.7681 11.3241 18.7204 11.3439 18.6707 11.3439H16.7615V12.0806H18.6707C18.7204 12.0806 18.7681 12.1003 18.8033 12.1355C18.8384 12.1706 18.8582 12.2183 18.8582 12.268V12.9766C18.8591 13.0018 18.8549 13.0269 18.8458 13.0504C18.8368 13.0739 18.8232 13.0953 18.8057 13.1134C18.7882 13.1315 18.7672 13.1459 18.744 13.1558C18.7208 13.1656 18.6959 13.1707 18.6707 13.1706Z" fill="white"/>
<path d="M8.27827 13.1706C8.32799 13.1706 8.37567 13.1509 8.41082 13.1157C8.44598 13.0805 8.46573 13.0329 8.46573 12.9831V12.2745C8.46573 12.2248 8.44598 12.1772 8.41082 12.142C8.37567 12.1068 8.32799 12.0871 8.27827 12.0871H6.369V8.6191C6.369 8.56938 6.34925 8.5217 6.3141 8.48655C6.27894 8.45139 6.23126 8.43164 6.18154 8.43164H5.4692C5.41948 8.43164 5.3718 8.45139 5.33664 8.48655C5.30149 8.5217 5.28174 8.56938 5.28174 8.6191V12.9803C5.28174 13.0301 5.30149 13.0777 5.33664 13.1129C5.3718 13.148 5.41948 13.1678 5.4692 13.1678H8.28108L8.27827 13.1706Z" fill="white"/>
<path d="M9.97012 8.42432H9.26152C9.15592 8.42432 9.07031 8.50992 9.07031 8.61552V12.9796C9.07031 13.0852 9.15592 13.1708 9.26152 13.1708H9.97012C10.0757 13.1708 10.1613 13.0852 10.1613 12.9796V8.61552C10.1613 8.50992 10.0757 8.42432 9.97012 8.42432Z" fill="white"/>
<path d="M14.7977 8.42432H14.0891C14.0394 8.42432 13.9917 8.44407 13.9565 8.47922C13.9214 8.51438 13.9016 8.56206 13.9016 8.61178V11.2043L11.9052 8.50774C11.9006 8.5006 11.8953 8.49399 11.8893 8.48805L11.878 8.47681L11.8677 8.46837H11.8621L11.8518 8.46087H11.8462L11.8358 8.45525H11.8293H11.819H11.8124H11.8012H11.7937H11.7824H11.7749H11.7646H11.042C10.9922 8.45525 10.9446 8.475 10.9094 8.51015C10.8742 8.54531 10.8545 8.59299 10.8545 8.64271V13.0068C10.8545 13.0565 10.8742 13.1042 10.9094 13.1393C10.9446 13.1745 10.9922 13.1942 11.042 13.1942H11.7515C11.8012 13.1942 11.8489 13.1745 11.884 13.1393C11.9192 13.1042 11.9389 13.0565 11.9389 13.0068V10.3889L13.9382 13.0883C13.9513 13.1074 13.9678 13.1239 13.9869 13.137L13.9982 13.1445H14.0038L14.0132 13.1492H14.0225H14.0291H14.0422C14.0588 13.1533 14.0758 13.1555 14.0928 13.1558H14.7977C14.8474 13.1558 14.8951 13.136 14.9302 13.1009C14.9654 13.0657 14.9851 13.018 14.9851 12.9683V8.61552C14.9856 8.59059 14.9812 8.56581 14.972 8.54264C14.9628 8.51946 14.949 8.49835 14.9316 8.48054C14.9141 8.46273 14.8933 8.44859 14.8703 8.43894C14.8473 8.42928 14.8226 8.42431 14.7977 8.42432Z" fill="white"/>
</g>
<defs>
<clipPath id="clip0_9025_5507">
<rect width="20" height="20" fill="white" transform="translate(2 2)"/>
</clipPath>
</defs>
</svg>
